REM DIRINDEX 1\4,1\2\5,1\2\6,1\3\7,1\3\8
REM DIRNAME cjc124,folder01,folder02,folder03,folder04,folder05,folder06,folder07
TITLE ""
FILE "072_Day36_Check3_Sentences.mp3" MP3
  TRACK 01 AUDIO
    TITLE "0:"
    INDEX 01 00:00:00
  TRACK 02 AUDIO
    TITLE "4:cjc124_2346"
    INDEX 01 00:00:25
  TRACK 03 AUDIO
    TITLE "0:"
    INDEX 01 00:02:00
  TRACK 04 AUDIO
    TITLE "7:cjc124_2347"
    INDEX 01 00:02:47
  TRACK 05 AUDIO
    TITLE "0:"
    INDEX 01 00:05:38
  TRACK 06 AUDIO
    TITLE "8:cjc124_2348"
    INDEX 01 00:05:56
  TRACK 07 AUDIO
    TITLE "0:"
    INDEX 01 00:08:03
  TRACK 08 AUDIO
    TITLE "7:cjc124_2349"
    INDEX 01 00:08:40
  TRACK 09 AUDIO
    TITLE "0:"
    INDEX 01 00:12:30
  TRACK 10 AUDIO
    TITLE "8:cjc124_2350"
    INDEX 01 00:12:44
  TRACK 11 AUDIO
    TITLE "0:"
    INDEX 01 00:15:21
  TRACK 12 AUDIO
    TITLE "7:cjc124_2351"
    INDEX 01 00:15:58
  TRACK 13 AUDIO
    TITLE "0:"
    INDEX 01 00:19:03
  TRACK 14 AUDIO
    TITLE "8:cjc124_2352"
    INDEX 01 00:19:20
  TRACK 15 AUDIO
    TITLE "0:"
    INDEX 01 00:21:60
  TRACK 16 AUDIO
    TITLE "7:cjc124_2353"
    INDEX 01 00:22:21
  TRACK 17 AUDIO
    TITLE "0:"
    INDEX 01 00:25:60
  TRACK 18 AUDIO
    TITLE "8:cjc124_2354"
    INDEX 01 00:26:01
  TRACK 19 AUDIO
    TITLE "0:"
    INDEX 01 00:28:53
  TRACK 20 AUDIO
    TITLE "7:cjc124_2355"
    INDEX 01 00:29:15
  TRACK 21 AUDIO
    TITLE "0:"
    INDEX 01 00:32:27
  TRACK 22 AUDIO
    TITLE "8:cjc124_2356"
    INDEX 01 00:32:43
  TRACK 23 AUDIO
    TITLE "0:"
    INDEX 01 00:34:73
  TRACK 24 AUDIO
    TITLE "7:cjc124_2357"
    INDEX 01 00:35:35
  TRACK 25 AUDIO
    TITLE "0:"
    INDEX 01 00:38:12
  TRACK 26 AUDIO
    TITLE "8:cjc124_2358"
    INDEX 01 00:38:28
  TRACK 27 AUDIO
    TITLE "0:"
    INDEX 01 00:40:54
  TRACK 28 AUDIO
    TITLE "7:cjc124_2359"
    INDEX 01 00:41:18
  TRACK 29 AUDIO
    TITLE "0:"
    INDEX 01 00:44:18
  TRACK 30 AUDIO
    TITLE "8:cjc124_2360"
    INDEX 01 00:44:34
  TRACK 31 AUDIO
    TITLE "0:"
    INDEX 01 00:47:23
  TRACK 32 AUDIO
    TITLE "7:cjc124_2361"
    INDEX 01 00:47:60
  TRACK 33 AUDIO
    TITLE "0:"
    INDEX 01 00:51:62
  TRACK 34 AUDIO
    TITLE "8:cjc124_2362"
    INDEX 01 00:52:00
  TRACK 35 AUDIO
    TITLE "0:"
    INDEX 01 00:54:60
  TRACK 36 AUDIO
    TITLE "7:cjc124_2363"
    INDEX 01 00:55:24
  TRACK 37 AUDIO
    TITLE "0:"
    INDEX 01 00:58:17
  TRACK 38 AUDIO
    TITLE "8:cjc124_2364"
    INDEX 01 00:58:30
  TRACK 39 AUDIO
    TITLE "0:"
    INDEX 01 01:01:21
  TRACK 40 AUDIO
    TITLE "7:cjc124_2365"
    INDEX 01 01:01:60
  TRACK 41 AUDIO
    TITLE "0:"
    INDEX 01 01:07:06
  TRACK 42 AUDIO
    TITLE "8:cjc124_2366"
    INDEX 01 01:07:23
  TRACK 43 AUDIO
    TITLE "0:"
    INDEX 01 01:12:30
  TRACK 44 AUDIO
    TITLE "7:cjc124_2367"
    INDEX 01 01:12:66
  TRACK 45 AUDIO
    TITLE "0:"
    INDEX 01 01:16:18
  TRACK 46 AUDIO
    TITLE "8:cjc124_2368"
    INDEX 01 01:16:34
  TRACK 47 AUDIO
    TITLE "0:"
    INDEX 01 01:19:23
  TRACK 48 AUDIO
    TITLE "7:cjc124_2369"
    INDEX 01 01:19:60
  TRACK 49 AUDIO
    TITLE "0:"
    INDEX 01 01:24:04
  TRACK 50 AUDIO
    TITLE "8:cjc124_2370"
    INDEX 01 01:24:18
  TRACK 51 AUDIO
    TITLE "0:"
    INDEX 01 01:28:59
  TRACK 52 AUDIO
    TITLE "7:cjc124_2371"
    INDEX 01 01:29:25
  TRACK 53 AUDIO
    TITLE "0:"
    INDEX 01 01:33:54
  TRACK 54 AUDIO
    TITLE "8:cjc124_2372"
    INDEX 01 01:34:01
  TRACK 55 AUDIO
    TITLE "0:"
    INDEX 01 01:38:16
  TRACK 56 AUDIO
    TITLE "7:cjc124_2373"
    INDEX 01 01:38:53
  TRACK 57 AUDIO
    TITLE "0:"
    INDEX 01 01:41:42
  TRACK 58 AUDIO
    TITLE "8:cjc124_2374"
    INDEX 01 01:41:57
  TRACK 59 AUDIO
    TITLE "0:"
    INDEX 01 01:44:32
  TRACK 60 AUDIO
    TITLE "7:cjc124_2375"
    INDEX 01 01:44:70
  TRACK 61 AUDIO
    TITLE "0:"
    INDEX 01 01:47:72
  TRACK 62 AUDIO
    TITLE "8:cjc124_2376"
    INDEX 01 01:48:12
  TRACK 63 AUDIO
    TITLE "0:"
    INDEX 01 01:51:36
  TRACK 64 AUDIO
    TITLE "7:cjc124_2377"
    INDEX 01 01:51:74
  TRACK 65 AUDIO
    TITLE "0:"
    INDEX 01 01:55:07
  TRACK 66 AUDIO
    TITLE "8:cjc124_2378"
    INDEX 01 01:55:22
  TRACK 67 AUDIO
    TITLE "0:"
    INDEX 01 01:58:46
